<?xml version="1.0" encoding="UTF-8"?>
<svg id="Layer_7" data-name="Layer 7" xmlns="http://www.w3.org/2000/svg" xmlns:xlink="http://www.w3.org/1999/xlink" viewBox="0 0 123.8 144">
  <defs>
    <style>
      .cls-1 {
        fill: none;
      }

      .cls-2 {
        fill: #eee0d5;
        filter: url(#drop-shadow-1);
        font-family: Poppins-Bold, Poppins;
        font-size: 12px;
        font-weight: 700;
      }

      .cls-3 {
        fill: url(#radial-gradient);
      }

      .cls-4 {
        fill: url(#linear-gradient);
      }

      .cls-5 {
        fill: #030203;
      }

      .cls-6 {
        fill: #263543;
        fill-rule: evenodd;
      }

      .cls-7 {
        clip-path: url(#clippath);
      }
    </style>
    <linearGradient id="linear-gradient" x1="62.22" y1="143.7" x2="62.22" y2="4.23" gradientUnits="userSpaceOnUse">
      <stop offset="0" stop-color="#d36457"/>
      <stop offset="1" stop-color="#162231"/>
    </linearGradient>
    <clipPath id="clippath">
      <polygon class="cls-1" points="4.76 38.83 4.76 105.17 62.22 138.35 119.68 105.17 119.68 38.83 62.22 5.65 4.76 38.83"/>
    </clipPath>
    <radialGradient id="radial-gradient" cx="62.57" cy="74.36" fx="62.57" fy="144.46" r="70.11" gradientUnits="userSpaceOnUse">
      <stop offset="0" stop-color="#e7cf47"/>
      <stop offset=".46" stop-color="#d36457"/>
      <stop offset="1" stop-color="#873d4f"/>
    </radialGradient>
    <filter id="drop-shadow-1" filterUnits="userSpaceOnUse">
      <feOffset dx="0" dy="1.5"/>
      <feGaussianBlur result="blur" stdDeviation="1"/>
      <feFlood flood-color="#000" flood-opacity=".5"/>
      <feComposite in2="blur" operator="in"/>
      <feComposite in="SourceGraphic"/>
    </filter>
  </defs>
  <g id="Polygon_1" data-name="Polygon 1">
    <polygon class="cls-6" points="61.9 0 0 36 0 108 61.9 144 123.8 108 123.8 36 61.9 0"/>
  </g>
  <polygon class="cls-5" points="2.99 37.8 2.99 106.2 62.22 140.4 121.46 106.2 121.46 37.8 62.22 3.6 2.99 37.8"/>
  <polygon class="cls-4" points="4.76 38.83 4.76 105.17 62.22 138.35 119.68 105.17 119.68 38.83 62.22 5.65 4.76 38.83"/>
  <g class="cls-7">
    <path class="cls-3" d="M60.88,140.4L3.68,108.87l.57-14.74,9.41,1.78c1.39-4.18,3.06-6.31,7.21-9.43.25-.18.29-.54.09-.77s-.3-.43.39-1.04l-8.15-5.62,8.29,3.44c-.09-.46-.26-.63.32-.92l-16.75-13.08,17.38,10.04c-.06-1.84.11-2.7,1.38-4.13l-4.07-3.5,8.32,4.99c-.11-.29,0-.63.4-.69L2.99,49.03l.46-13.2,23.81,31.04c.46-1.43,1.22-2.1,2.81-3.04l-3.33-7.11,4.82,5.68c.46-1.38,1.07-1.84,2.58-2.12l-8.55-21.4,13.02,18.88c2.75-5.28,5.39-7.92,12.39-10.15L43.09,1.99l14.23,44.46c5.39.98,12.97,5.62,14.29,10.73l13.25-30.58-9.52,34.37c.86-.06,3.21,1.43,3.5,2.24l7.11-7.4-4.99,9.75c.46.06.75.17.86.75l21.29-16.75-19.32,22.32c.99.89,1.99,6.08,1.3,7.4l9.18-3.38-7.92,5.74c.92.11,2.64,1.32,2.41,2.29l24.9-11.3-23.06,13.71c1.72.52,5.34,6.66,4.93,8.89l27.94-.75-26.45,4.65c1.95,1.95,1.66,11.99.57,11.42l22.09,3.67-58.81,26.19ZM17.15,65.66l-.57.9,3.71,2.57.15-.2-3.28-3.28Z"/>
    <image width="960" height="1088" transform="translate(-8.56 1.63) scale(.13)" xlink:href="weaver.png"/>
  </g>
  <text class="cls-2" transform="translate(34.74 119.21)"><tspan x="0" y="0">WEAVER</tspan></text>
</svg>
